<?xml version="1.0" encoding="utf-8"?>
<!-- Generator: Adobe Illustrator 25.2.3, SVG Export Plug-In . SVG Version: 6.00 Build 0)  -->
<svg version="1.2" baseProfile="tiny" id="close" xmlns="http://www.w3.org/2000/svg" xmlns:xlink="http://www.w3.org/1999/xlink"
	 x="0px" y="0px" viewBox="0 0 70 70" overflow="visible" xml:space="preserve">
<path fill="#F9B233" d="M35,3.5C17.6,3.5,3.5,17.6,3.5,35S17.6,66.5,35,66.5S66.5,52.4,66.5,35S52.4,3.5,35,3.5z M53.74,43.84
	c1.95,1.95,1.95,5.12,0,7.07l-2.83,2.83c-1.95,1.95-5.12,1.95-7.07,0L35,44.9l-8.84,8.84c-1.95,1.95-5.12,1.95-7.07,0l-2.83-2.83
	c-1.95-1.95-1.95-5.12,0-7.07L25.1,35l-8.84-8.84c-1.95-1.95-1.95-5.12,0-7.07l2.83-2.83c1.95-1.95,5.12-1.95,7.07,0L35,25.1
	l8.84-8.84c1.95-1.95,5.12-1.95,7.07,0l2.83,2.83c1.95,1.95,1.95,5.12,0,7.07L44.9,35L53.74,43.84z"/>
</svg>
